<svg width="192" height="192" viewBox="0 0 192 192" fill="none" xmlns="http://www.w3.org/2000/svg">
<path d="M106.937 84.6842C110.903 82.9847 124.292 77.8398 140.034 82.6807C149.721 85.6602 156.148 91.1429 159.415 94.3944C165.474 88.3358 171.531 82.2789 177.589 76.2202C173.543 72.7109 165.582 66.7429 153.877 63.5838C143.456 60.7713 134.59 61.406 129.456 62.1633" fill="#7851A9"/>
<path d="M147.417 54.9457C153.35 54.9457 158.16 50.1358 158.16 44.2026C158.16 38.2693 153.35 33.4595 147.417 33.4595C141.484 33.4595 136.674 38.2693 136.674 44.2026C136.674 50.1358 141.484 54.9457 147.417 54.9457Z" fill="#7851A9"/>
<path d="M107.052 84.7984C108.752 80.8322 113.897 67.4438 109.056 51.7015C106.076 42.0144 100.594 35.5878 97.3422 32.3202C103.401 26.2616 109.458 20.2047 115.516 14.146C119.026 18.1922 124.994 26.1531 128.153 37.858C130.965 48.2793 130.331 57.1451 129.573 62.2793" fill="#7851A9"/>
<path d="M84.9475 85.3263C83.248 81.36 78.1031 67.9716 82.944 52.2294C85.9235 42.5423 91.4062 36.1156 94.6577 32.848C88.5991 26.7894 82.5422 20.7325 76.4835 14.6738C72.9742 18.7201 67.0062 26.6809 63.8471 38.3858C61.0346 48.8072 61.6693 57.6729 62.4266 62.8072" fill="#7851A9"/>
<path d="M44.4676 55.5893C50.4009 55.5893 55.2107 50.7794 55.2107 44.8461C55.2107 38.9129 50.4009 34.103 44.4676 34.103C38.5343 34.103 33.7245 38.9129 33.7245 44.8461C33.7245 50.7794 38.5343 55.5893 44.4676 55.5893Z" fill="#7851A9"/>
<path d="M85.0631 85.2125C81.0969 83.513 67.7084 78.3681 51.9662 83.209C42.2791 86.1885 35.8524 91.6712 32.5849 94.9228C26.5262 88.8641 20.4693 82.8072 14.4106 76.7485C18.4569 73.2392 26.4178 67.2712 38.1226 64.1121C48.544 61.2996 57.4098 61.9343 62.544 62.6916" fill="#7851A9"/>
<path d="M106.937 107.316C110.903 109.015 124.292 114.16 140.034 109.319C149.721 106.34 156.148 100.857 159.415 97.6055C165.474 103.664 171.531 109.721 177.589 115.78C173.543 119.289 165.582 125.257 153.877 128.416C143.456 131.229 134.59 130.594 129.456 129.837" fill="#7851A9"/>
<path d="M147.417 158.54C153.35 158.54 158.16 153.731 158.16 147.797C158.16 141.864 153.35 137.054 147.417 137.054C141.484 137.054 136.674 141.864 136.674 147.797C136.674 153.731 141.484 158.54 147.417 158.54Z" fill="#7851A9"/>
<path d="M107.052 107.202C108.752 111.168 113.897 124.556 109.056 140.299C106.076 149.986 100.594 156.412 97.3422 159.68C103.401 165.739 109.458 171.795 115.516 177.854C119.026 173.808 124.994 165.847 128.153 154.142C130.965 143.721 130.331 134.855 129.573 129.721" fill="#7851A9"/>
<path d="M84.9475 106.674C83.248 110.64 78.1031 124.029 82.944 139.771C85.9235 149.458 91.4062 155.885 94.6577 159.152C88.5991 165.211 82.5422 171.268 76.4835 177.326C72.9742 173.28 67.0062 165.319 63.8471 153.614C61.0346 143.193 61.6693 134.327 62.4266 129.193" fill="#7851A9"/>
<path d="M44.4676 157.897C50.4009 157.897 55.2107 153.087 55.2107 147.154C55.2107 141.22 50.4009 136.411 44.4676 136.411C38.5343 136.411 33.7245 141.22 33.7245 147.154C33.7245 153.087 38.5343 157.897 44.4676 157.897Z" fill="#7851A9"/>
<path d="M85.0631 106.787C81.0969 108.487 67.7084 113.632 51.9662 108.791C42.2791 105.811 35.8524 100.329 32.5849 97.0771C26.5262 103.136 20.4693 109.193 14.4106 115.251C18.4569 118.761 26.4178 124.729 38.1226 127.888C48.544 130.7 57.4098 130.066 62.544 129.308" fill="#7851A9"/>
</svg>
