<svg width="90" height="88" viewBox="0 0 90 88" fill="none" xmlns="http://www.w3.org/2000/svg">
<path d="M74.7426 58.1488H14.707M67.0872 18.1863C69.0642 18.1863 70.9601 18.9527 72.3581 20.3169C73.756 21.6812 74.5413 23.5315 74.5413 25.4608V56.472C74.5408 57.6048 74.8114 58.722 75.3315 59.7346L79.312 67.4711C79.5993 68.0275 79.7353 68.6467 79.707 69.2692C79.6787 69.8917 79.487 70.4967 79.1503 71.0261C78.8136 71.5555 78.3431 71.9916 77.7841 72.2926C77.225 72.5937 76.5961 72.7495 75.9576 72.7451H13.492C12.8535 72.7495 12.2246 72.5937 11.6655 72.2926C11.1064 71.9916 10.636 71.5555 10.2993 71.0261C9.96256 70.4967 9.77085 69.8917 9.74254 69.2692C9.71423 68.6467 9.85027 68.0275 10.1376 67.4711L14.1181 59.7346C14.6382 58.722 14.9088 57.6048 14.9083 56.472V25.4608C14.9083 23.5315 15.6936 21.6812 17.0915 20.3169C18.4894 18.9527 20.3854 18.1863 22.3624 18.1863H67.0872Z" stroke="#800000" stroke-width="6" stroke-linecap="round" stroke-linejoin="round"/>
</svg>
