<svg width="90" height="88" viewBox="0 0 90 88" fill="none" xmlns="http://www.w3.org/2000/svg">
<path d="M59.6331 72.7451V69.1078C59.6331 65.2492 58.0624 61.5486 55.2665 58.8201C52.4707 56.0916 48.6787 54.5588 44.7248 54.5588H18.6353C14.6814 54.5588 10.8894 56.0916 8.09358 58.8201C5.29774 61.5486 3.72705 65.2492 3.72705 69.1078V72.7451M57.7695 40.0098C61.7234 40.0098 65.5154 38.4769 68.3113 35.7485C71.1071 33.02 72.6778 29.3194 72.6778 25.4608C72.6778 21.6021 71.1071 17.9015 68.3113 15.1731C65.5154 12.4446 61.7234 10.9117 57.7695 10.9117M85.7225 72.7451V69.1078C85.7225 65.2492 84.1518 61.5486 81.356 58.8201C78.5601 56.0916 74.7682 54.5588 70.8143 54.5588M46.5883 25.4608C46.5883 29.3194 45.0176 33.02 42.2218 35.7485C39.4259 38.4769 35.634 40.0098 31.6801 40.0098C27.7261 40.0098 23.9342 38.4769 21.1383 35.7485C18.3425 33.02 16.7718 29.3194 16.7718 25.4608C16.7718 21.6021 18.3425 17.9015 21.1383 15.1731C23.9342 12.4446 27.7261 10.9117 31.6801 10.9117C35.634 10.9117 39.4259 12.4446 42.2218 15.1731C45.0176 17.9015 46.5883 21.6021 46.5883 25.4608Z" stroke="#800000" stroke-width="6" stroke-linecap="square"/>
</svg>
