<svg width="316" height="62" viewBox="0 0 316 62" fill="none" xmlns="http://www.w3.org/2000/svg">
<path d="M12.3196 61.0713C10.7018 61.0713 9.0998 60.754 7.60511 60.1376C6.11042 59.5212 4.75232 58.6178 3.60833 57.4788C2.46435 56.3398 1.55689 54.9877 0.937776 53.4996C0.318657 52.0115 0 50.4165 0 48.8058L0 2.40186H24.1246C37.6987 2.40186 45.4507 9.51136 45.4507 21.1043C45.4507 28.6302 41.5265 35.1312 34.7394 37.7892L47.1555 61.0713H33.1954L22.1946 39.6147H12.3196V61.0713ZM12.3196 30.6797H22.9344C29.1425 30.6797 32.7773 27.157 32.7773 21.3285C32.7773 15.5 28.9495 11.9773 22.8058 11.9773H12.3196V30.6797Z" fill="black"/>
<path d="M92.0595 47.7168C90.7406 56.2674 82.9243 61.9998 72.0843 61.9998C58.6067 61.9998 50.533 53.4172 50.533 39.4864C50.533 25.5556 58.7032 16.5566 71.634 16.5566C84.5648 16.5566 92.4133 25.1393 92.4133 38.3975V42.0163H62.2415V42.7529C62.2415 48.9657 66.1979 53.257 72.2773 53.257C76.6519 53.257 79.9972 51.1114 81.0908 47.7808H92.0273L92.0595 47.7168ZM62.3701 34.7147H80.9621C80.7048 29.1424 77.07 25.3314 71.7626 25.3314C66.4552 25.3314 62.7883 29.2705 62.3701 34.7147Z" fill="black"/>
<path d="M116.281 16.5249C127.281 16.5249 134.422 22.0652 134.583 30.5197H123.582C123.325 27.029 120.526 24.8834 116.12 24.8834C112.002 24.8834 109.3 26.7408 109.3 29.559C109.3 31.7047 111.166 33.1778 115.026 34.0745L123.389 35.8679C132.171 37.8214 135.709 41.2801 135.709 47.7811C135.709 56.3638 127.796 62.0001 116.216 62.0001C104.636 62.0001 97.3347 56.3958 96.6913 47.9092H108.335C108.914 51.56 111.809 53.6737 116.538 53.6737C121.266 53.6737 123.807 51.8803 123.807 49.0301C123.807 46.8204 122.328 45.6034 118.403 44.6747L110.33 42.8813C102.031 41.0239 97.785 36.7005 97.785 30.2635C97.785 21.9691 105.022 16.5249 116.248 16.5249H116.281Z" fill="black"/>
<path d="M139.955 7.07748C139.955 3.1064 143.139 0 147.289 0C151.438 0 154.623 3.07438 154.623 7.07748C154.623 11.0806 151.438 14.155 147.289 14.155C143.139 14.155 139.955 11.0165 139.955 7.07748Z" fill="black"/>
<path d="M141.82 17.4854C148.414 17.4854 153.754 22.8015 153.754 29.3666V61.0711C147.16 61.0711 141.82 55.755 141.82 49.1899V17.4854Z" fill="black"/>
<path d="M173.89 2.40165V49.1899C173.89 55.755 168.55 61.0711 161.956 61.0711V14.2508C161.956 7.68574 167.296 2.36963 173.89 2.36963V2.40165Z" fill="black"/>
<path d="M221.882 47.7168C220.563 56.2674 212.747 61.9998 201.907 61.9998C188.429 61.9998 180.355 53.4172 180.355 39.4864C180.355 25.5556 188.526 16.5566 201.456 16.5566C214.387 16.5566 222.236 25.1393 222.236 38.3975V42.0163H192.064V42.7529C192.064 48.9657 196.02 53.257 202.1 53.257C206.474 53.257 209.82 51.1114 210.913 47.7808H221.85L221.882 47.7168ZM192.193 34.7147H210.785C210.527 29.1424 206.893 25.3314 201.585 25.3314C196.278 25.3314 192.611 29.2705 192.193 34.7147Z" fill="black"/>
<path d="M226.675 48.5494C226.675 40.6073 232.786 36.0277 243.691 35.3872L254.724 34.7467V31.8645C254.724 27.7973 251.861 25.4275 247.39 25.4275C242.919 25.4275 240.12 27.6372 239.541 30.8397H228.637C229.087 22.3852 236.325 16.5566 247.904 16.5566C259.484 16.5566 266.432 22.3211 266.432 31.0959V61.0711H261.607C257.908 61.0711 254.917 58.0928 254.917 54.41C254.917 50.7271 254.659 54.41 254.659 54.41C252.215 59.0535 246.779 61.7757 241.31 61.7757C232.979 61.7757 226.643 56.3955 226.643 48.5494H226.675ZM254.756 45.0907V41.9203L245.524 42.4967C241.085 42.817 238.544 44.8025 238.544 47.9089C238.544 51.1754 241.246 53.193 245.267 53.193C250.445 53.193 254.756 49.8304 254.756 45.0907Z" fill="black"/>
<path d="M272.544 39.1983C272.544 25.3636 279.491 16.781 290.46 16.781C296.797 16.781 301.686 20.1116 303.809 24.9473H304.066V2.40186C310.66 2.40186 316 7.71797 316 14.2831V49.3822C316 55.8512 310.725 61.1033 304.227 61.1033V53.6095H304.034C301.911 58.4132 296.861 61.7758 290.396 61.7758C279.459 61.7758 272.544 53.1612 272.544 39.1983ZM284.767 39.2624C284.767 47.2686 288.434 52.2004 294.449 52.2004C300.464 52.2004 304.163 47.2366 304.163 39.2624C304.163 31.2882 300.367 26.2924 294.449 26.2924C288.53 26.2924 284.767 31.2882 284.767 39.2624Z" fill="black"/>
</svg>
